<svg xmlns="http://www.w3.org/2000/svg" xmlns:xlink="http://www.w3.org/1999/xlink" width="1920" zoomAndPan="magnify" viewBox="0 0 1440 809.999993" height="1080" preserveAspectRatio="xMidYMid meet" version="1.0"><defs><filter x="0%" y="0%" width="100%" height="100%" id="f50fccf04a"><feColorMatrix values="0 0 0 0 1 0 0 0 0 1 0 0 0 0 1 0 0 0 1 0" color-interpolation-filters="sRGB"/></filter><g/><linearGradient x1="0" gradientTransform="matrix(0.75, 0, 0, 0.75, 0.00000622222, 0.00002)" y1="540" x2="1919.99992" gradientUnits="userSpaceOnUse" y2="540" id="d5beeb61ec"><stop stop-opacity="1" stop-color="rgb(36.859131%, 9.01947%, 92.158508%)" offset="0"/><stop stop-opacity="1" stop-color="rgb(36.738586%, 8.984375%, 91.871643%)" offset="0.00390625"/><stop stop-opacity="1" stop-color="rgb(36.619568%, 8.94928%, 91.586304%)" offset="0.0078125"/><stop stop-opacity="1" stop-color="rgb(36.500549%, 8.912659%, 91.299438%)" offset="0.0117188"/><stop stop-opacity="1" stop-color="rgb(36.381531%, 8.877563%, 91.012573%)" offset="0.015625"/><stop stop-opacity="1" stop-color="rgb(36.260986%, 8.842468%, 90.725708%)" offset="0.0195312"/><stop stop-opacity="1" stop-color="rgb(36.141968%, 8.807373%, 90.440369%)" offset="0.0234375"/><stop stop-opacity="1" stop-color="rgb(36.022949%, 8.772278%, 90.153503%)" offset="0.0273438"/><stop stop-opacity="1" stop-color="rgb(35.903931%, 8.737183%, 89.866638%)" offset="0.03125"/><stop stop-opacity="1" stop-color="rgb(35.783386%, 8.702087%, 89.579773%)" offset="0.0351562"/><stop stop-opacity="1" stop-color="rgb(35.664368%, 8.666992%, 89.294434%)" offset="0.0390625"/><stop stop-opacity="1" stop-color="rgb(35.543823%, 8.631897%, 89.007568%)" offset="0.0429688"/><stop stop-opacity="1" stop-color="rgb(35.424805%, 8.596802%, 88.720703%)" offset="0.046875"/><stop stop-opacity="1" stop-color="rgb(35.305786%, 8.561707%, 88.433838%)" offset="0.0507812"/><stop stop-opacity="1" stop-color="rgb(35.186768%, 8.526611%, 88.148499%)" offset="0.0546875"/><stop stop-opacity="1" stop-color="rgb(35.066223%, 8.48999%, 87.861633%)" offset="0.0585938"/><stop stop-opacity="1" stop-color="rgb(34.947205%, 8.454895%, 87.574768%)" offset="0.0625"/><stop stop-opacity="1" stop-color="rgb(34.82666%, 8.4198%, 87.287903%)" offset="0.0664062"/><stop stop-opacity="1" stop-color="rgb(34.707642%, 8.384705%, 87.002563%)" offset="0.0703125"/><stop stop-opacity="1" stop-color="rgb(34.588623%, 8.349609%, 86.715698%)" offset="0.0742188"/><stop stop-opacity="1" stop-color="rgb(34.469604%, 8.314514%, 86.428833%)" offset="0.078125"/><stop stop-opacity="1" stop-color="rgb(34.34906%, 8.279419%, 86.141968%)" offset="0.0820312"/><stop stop-opacity="1" stop-color="rgb(34.230042%, 8.244324%, 85.856628%)" offset="0.0859375"/><stop stop-opacity="1" stop-color="rgb(34.111023%, 8.209229%, 85.569763%)" offset="0.0898438"/><stop stop-opacity="1" stop-color="rgb(33.992004%, 8.174133%, 85.282898%)" offset="0.09375"/><stop stop-opacity="1" stop-color="rgb(33.87146%, 8.137512%, 84.996033%)" offset="0.0976562"/><stop stop-opacity="1" stop-color="rgb(33.752441%, 8.102417%, 84.710693%)" offset="0.101562"/><stop stop-opacity="1" stop-color="rgb(33.631897%, 8.067322%, 84.423828%)" offset="0.105469"/><stop stop-opacity="1" stop-color="rgb(33.512878%, 8.032227%, 84.136963%)" offset="0.109375"/><stop stop-opacity="1" stop-color="rgb(33.39386%, 7.997131%, 83.850098%)" offset="0.113281"/><stop stop-opacity="1" stop-color="rgb(33.274841%, 7.962036%, 83.564758%)" offset="0.117188"/><stop stop-opacity="1" stop-color="rgb(33.154297%, 7.926941%, 83.277893%)" offset="0.121094"/><stop stop-opacity="1" stop-color="rgb(33.035278%, 7.891846%, 82.991028%)" offset="0.125"/><stop stop-opacity="1" stop-color="rgb(32.91626%, 7.85675%, 82.704163%)" offset="0.128906"/><stop stop-opacity="1" stop-color="rgb(32.797241%, 7.821655%, 82.418823%)" offset="0.132812"/><stop stop-opacity="1" stop-color="rgb(32.676697%, 7.78656%, 82.131958%)" offset="0.136719"/><stop stop-opacity="1" stop-color="rgb(32.557678%, 7.751465%, 81.845093%)" offset="0.140625"/><stop stop-opacity="1" stop-color="rgb(32.437134%, 7.714844%, 81.558228%)" offset="0.144531"/><stop stop-opacity="1" stop-color="rgb(32.318115%, 7.679749%, 81.272888%)" offset="0.148438"/><stop stop-opacity="1" stop-color="rgb(32.199097%, 7.644653%, 80.986023%)" offset="0.152344"/><stop stop-opacity="1" stop-color="rgb(32.080078%, 7.609558%, 80.699158%)" offset="0.15625"/><stop stop-opacity="1" stop-color="rgb(31.959534%, 7.574463%, 80.412292%)" offset="0.160156"/><stop stop-opacity="1" stop-color="rgb(31.840515%, 7.539368%, 80.126953%)" offset="0.164062"/><stop stop-opacity="1" stop-color="rgb(31.719971%, 7.504272%, 79.840088%)" offset="0.167969"/><stop stop-opacity="1" stop-color="rgb(31.600952%, 7.469177%, 79.553223%)" offset="0.171875"/><stop stop-opacity="1" stop-color="rgb(31.481934%, 7.434082%, 79.266357%)" offset="0.175781"/><stop stop-opacity="1" stop-color="rgb(31.362915%, 7.398987%, 78.981018%)" offset="0.179688"/><stop stop-opacity="1" stop-color="rgb(31.242371%, 7.362366%, 78.694153%)" offset="0.183594"/><stop stop-opacity="1" stop-color="rgb(31.123352%, 7.327271%, 78.407288%)" offset="0.1875"/><stop stop-opacity="1" stop-color="rgb(31.004333%, 7.292175%, 78.120422%)" offset="0.191406"/><stop stop-opacity="1" stop-color="rgb(30.885315%, 7.25708%, 77.835083%)" offset="0.195312"/><stop stop-opacity="1" stop-color="rgb(30.764771%, 7.221985%, 77.548218%)" offset="0.199219"/><stop stop-opacity="1" stop-color="rgb(30.645752%, 7.18689%, 77.261353%)" offset="0.203125"/><stop stop-opacity="1" stop-color="rgb(30.525208%, 7.151794%, 76.974487%)" offset="0.207031"/><stop stop-opacity="1" stop-color="rgb(30.406189%, 7.116699%, 76.689148%)" offset="0.210938"/><stop stop-opacity="1" stop-color="rgb(30.28717%, 7.081604%, 76.402283%)" offset="0.214844"/><stop stop-opacity="1" stop-color="rgb(30.168152%, 7.046509%, 76.115417%)" offset="0.21875"/><stop stop-opacity="1" stop-color="rgb(30.047607%, 7.011414%, 75.828552%)" offset="0.222656"/><stop stop-opacity="1" stop-color="rgb(29.928589%, 6.976318%, 75.543213%)" offset="0.226562"/><stop stop-opacity="1" stop-color="rgb(29.808044%, 6.939697%, 75.256348%)" offset="0.230469"/><stop stop-opacity="1" stop-color="rgb(29.689026%, 6.904602%, 74.969482%)" offset="0.234375"/><stop stop-opacity="1" stop-color="rgb(29.570007%, 6.869507%, 74.682617%)" offset="0.238281"/><stop stop-opacity="1" stop-color="rgb(29.450989%, 6.834412%, 74.397278%)" offset="0.242188"/><stop stop-opacity="1" stop-color="rgb(29.330444%, 6.799316%, 74.110413%)" offset="0.246094"/><stop stop-opacity="1" stop-color="rgb(29.211426%, 6.764221%, 73.823547%)" offset="0.25"/><stop stop-opacity="1" stop-color="rgb(29.092407%, 6.729126%, 73.536682%)" offset="0.253906"/><stop stop-opacity="1" stop-color="rgb(28.973389%, 6.694031%, 73.251343%)" offset="0.257812"/><stop stop-opacity="1" stop-color="rgb(28.852844%, 6.658936%, 72.964478%)" offset="0.261719"/><stop stop-opacity="1" stop-color="rgb(28.733826%, 6.62384%, 72.677612%)" offset="0.265625"/><stop stop-opacity="1" stop-color="rgb(28.613281%, 6.587219%, 72.390747%)" offset="0.269531"/><stop stop-opacity="1" stop-color="rgb(28.494263%, 6.552124%, 72.105408%)" offset="0.273438"/><stop stop-opacity="1" stop-color="rgb(28.375244%, 6.517029%, 71.818542%)" offset="0.277344"/><stop stop-opacity="1" stop-color="rgb(28.256226%, 6.481934%, 71.531677%)" offset="0.28125"/><stop stop-opacity="1" stop-color="rgb(28.135681%, 6.446838%, 71.244812%)" offset="0.285156"/><stop stop-opacity="1" stop-color="rgb(28.016663%, 6.411743%, 70.959473%)" offset="0.289062"/><stop stop-opacity="1" stop-color="rgb(27.896118%, 6.376648%, 70.672607%)" offset="0.292969"/><stop stop-opacity="1" stop-color="rgb(27.7771%, 6.341553%, 70.385742%)" offset="0.296875"/><stop stop-opacity="1" stop-color="rgb(27.658081%, 6.306458%, 70.098877%)" offset="0.300781"/><stop stop-opacity="1" stop-color="rgb(27.539062%, 6.271362%, 69.813538%)" offset="0.304688"/><stop stop-opacity="1" stop-color="rgb(27.418518%, 6.236267%, 69.526672%)" offset="0.308594"/><stop stop-opacity="1" stop-color="rgb(27.2995%, 6.201172%, 69.239807%)" offset="0.3125"/><stop stop-opacity="1" stop-color="rgb(27.180481%, 6.164551%, 68.952942%)" offset="0.316406"/><stop stop-opacity="1" stop-color="rgb(27.061462%, 6.129456%, 68.667603%)" offset="0.320312"/><stop stop-opacity="1" stop-color="rgb(26.940918%, 6.09436%, 68.380737%)" offset="0.324219"/><stop stop-opacity="1" stop-color="rgb(26.821899%, 6.059265%, 68.093872%)" offset="0.328125"/><stop stop-opacity="1" stop-color="rgb(26.701355%, 6.02417%, 67.807007%)" offset="0.332031"/><stop stop-opacity="1" stop-color="rgb(26.582336%, 5.989075%, 67.521667%)" offset="0.335938"/><stop stop-opacity="1" stop-color="rgb(26.463318%, 5.953979%, 67.234802%)" offset="0.339844"/><stop stop-opacity="1" stop-color="rgb(26.344299%, 5.918884%, 66.947937%)" offset="0.34375"/><stop stop-opacity="1" stop-color="rgb(26.223755%, 5.883789%, 66.661072%)" offset="0.347656"/><stop stop-opacity="1" stop-color="rgb(26.104736%, 5.848694%, 66.375732%)" offset="0.351562"/><stop stop-opacity="1" stop-color="rgb(25.985718%, 5.812073%, 66.088867%)" offset="0.355469"/><stop stop-opacity="1" stop-color="rgb(25.866699%, 5.776978%, 65.802002%)" offset="0.359375"/><stop stop-opacity="1" stop-color="rgb(25.746155%, 5.741882%, 65.515137%)" offset="0.363281"/><stop stop-opacity="1" stop-color="rgb(25.627136%, 5.706787%, 65.229797%)" offset="0.367188"/><stop stop-opacity="1" stop-color="rgb(25.506592%, 5.671692%, 64.942932%)" offset="0.371094"/><stop stop-opacity="1" stop-color="rgb(25.387573%, 5.636597%, 64.656067%)" offset="0.375"/><stop stop-opacity="1" stop-color="rgb(25.268555%, 5.601501%, 64.369202%)" offset="0.378906"/><stop stop-opacity="1" stop-color="rgb(25.149536%, 5.566406%, 64.083862%)" offset="0.382812"/><stop stop-opacity="1" stop-color="rgb(25.028992%, 5.531311%, 63.796997%)" offset="0.386719"/><stop stop-opacity="1" stop-color="rgb(24.909973%, 5.496216%, 63.510132%)" offset="0.390625"/><stop stop-opacity="1" stop-color="rgb(24.789429%, 5.461121%, 63.223267%)" offset="0.394531"/><stop stop-opacity="1" stop-color="rgb(24.67041%, 5.426025%, 62.937927%)" offset="0.398438"/><stop stop-opacity="1" stop-color="rgb(24.551392%, 5.389404%, 62.651062%)" offset="0.402344"/><stop stop-opacity="1" stop-color="rgb(24.432373%, 5.354309%, 62.364197%)" offset="0.40625"/><stop stop-opacity="1" stop-color="rgb(24.311829%, 5.319214%, 62.077332%)" offset="0.410156"/><stop stop-opacity="1" stop-color="rgb(24.19281%, 5.284119%, 61.791992%)" offset="0.414062"/><stop stop-opacity="1" stop-color="rgb(24.073792%, 5.249023%, 61.505127%)" offset="0.417969"/><stop stop-opacity="1" stop-color="rgb(23.954773%, 5.213928%, 61.218262%)" offset="0.421875"/><stop stop-opacity="1" stop-color="rgb(23.834229%, 5.178833%, 60.931396%)" offset="0.425781"/><stop stop-opacity="1" stop-color="rgb(23.71521%, 5.143738%, 60.646057%)" offset="0.429688"/><stop stop-opacity="1" stop-color="rgb(23.594666%, 5.108643%, 60.359192%)" offset="0.433594"/><stop stop-opacity="1" stop-color="rgb(23.475647%, 5.073547%, 60.072327%)" offset="0.4375"/><stop stop-opacity="1" stop-color="rgb(23.356628%, 5.036926%, 59.785461%)" offset="0.441406"/><stop stop-opacity="1" stop-color="rgb(23.23761%, 5.001831%, 59.500122%)" offset="0.445312"/><stop stop-opacity="1" stop-color="rgb(23.117065%, 4.966736%, 59.213257%)" offset="0.449219"/><stop stop-opacity="1" stop-color="rgb(22.998047%, 4.931641%, 58.926392%)" offset="0.453125"/><stop stop-opacity="1" stop-color="rgb(22.877502%, 4.896545%, 58.639526%)" offset="0.457031"/><stop stop-opacity="1" stop-color="rgb(22.758484%, 4.86145%, 58.354187%)" offset="0.460938"/><stop stop-opacity="1" stop-color="rgb(22.639465%, 4.826355%, 58.067322%)" offset="0.464844"/><stop stop-opacity="1" stop-color="rgb(22.520447%, 4.79126%, 57.780457%)" offset="0.46875"/><stop stop-opacity="1" stop-color="rgb(22.399902%, 4.756165%, 57.493591%)" offset="0.472656"/><stop stop-opacity="1" stop-color="rgb(22.280884%, 4.721069%, 57.208252%)" offset="0.476562"/><stop stop-opacity="1" stop-color="rgb(22.161865%, 4.685974%, 56.921387%)" offset="0.480469"/><stop stop-opacity="1" stop-color="rgb(22.042847%, 4.650879%, 56.634521%)" offset="0.484375"/><stop stop-opacity="1" stop-color="rgb(21.922302%, 4.614258%, 56.347656%)" offset="0.488281"/><stop stop-opacity="1" stop-color="rgb(21.803284%, 4.579163%, 56.062317%)" offset="0.492188"/><stop stop-opacity="1" stop-color="rgb(21.682739%, 4.544067%, 55.775452%)" offset="0.496094"/><stop stop-opacity="1" stop-color="rgb(21.563721%, 4.508972%, 55.488586%)" offset="0.5"/><stop stop-opacity="1" stop-color="rgb(21.444702%, 4.473877%, 55.201721%)" offset="0.503906"/><stop stop-opacity="1" stop-color="rgb(21.325684%, 4.438782%, 54.916382%)" offset="0.507812"/><stop stop-opacity="1" stop-color="rgb(21.205139%, 4.403687%, 54.629517%)" offset="0.511719"/><stop stop-opacity="1" stop-color="rgb(21.086121%, 4.368591%, 54.342651%)" offset="0.515625"/><stop stop-opacity="1" stop-color="rgb(20.965576%, 4.333496%, 54.055786%)" offset="0.519531"/><stop stop-opacity="1" stop-color="rgb(20.846558%, 4.298401%, 53.770447%)" offset="0.523438"/><stop stop-opacity="1" stop-color="rgb(20.727539%, 4.26178%, 53.483582%)" offset="0.527344"/><stop stop-opacity="1" stop-color="rgb(20.608521%, 4.226685%, 53.196716%)" offset="0.53125"/><stop stop-opacity="1" stop-color="rgb(20.487976%, 4.191589%, 52.909851%)" offset="0.535156"/><stop stop-opacity="1" stop-color="rgb(20.368958%, 4.156494%, 52.624512%)" offset="0.539062"/><stop stop-opacity="1" stop-color="rgb(20.249939%, 4.121399%, 52.337646%)" offset="0.542969"/><stop stop-opacity="1" stop-color="rgb(20.13092%, 4.086304%, 52.050781%)" offset="0.546875"/><stop stop-opacity="1" stop-color="rgb(20.010376%, 4.051208%, 51.763916%)" offset="0.550781"/><stop stop-opacity="1" stop-color="rgb(19.891357%, 4.016113%, 51.478577%)" offset="0.554688"/><stop stop-opacity="1" stop-color="rgb(19.770813%, 3.981018%, 51.191711%)" offset="0.558594"/><stop stop-opacity="1" stop-color="rgb(19.651794%, 3.945923%, 50.904846%)" offset="0.5625"/><stop stop-opacity="1" stop-color="rgb(19.532776%, 3.910828%, 50.617981%)" offset="0.566406"/><stop stop-opacity="1" stop-color="rgb(19.413757%, 3.875732%, 50.332642%)" offset="0.570312"/><stop stop-opacity="1" stop-color="rgb(19.293213%, 3.839111%, 50.045776%)" offset="0.574219"/><stop stop-opacity="1" stop-color="rgb(19.174194%, 3.804016%, 49.758911%)" offset="0.578125"/><stop stop-opacity="1" stop-color="rgb(19.055176%, 3.768921%, 49.472046%)" offset="0.582031"/><stop stop-opacity="1" stop-color="rgb(18.936157%, 3.733826%, 49.186707%)" offset="0.585938"/><stop stop-opacity="1" stop-color="rgb(18.815613%, 3.69873%, 48.899841%)" offset="0.589844"/><stop stop-opacity="1" stop-color="rgb(18.696594%, 3.663635%, 48.612976%)" offset="0.59375"/><stop stop-opacity="1" stop-color="rgb(18.57605%, 3.62854%, 48.326111%)" offset="0.597656"/><stop stop-opacity="1" stop-color="rgb(18.457031%, 3.593445%, 48.040771%)" offset="0.601562"/><stop stop-opacity="1" stop-color="rgb(18.338013%, 3.55835%, 47.753906%)" offset="0.605469"/><stop stop-opacity="1" stop-color="rgb(18.218994%, 3.523254%, 47.467041%)" offset="0.609375"/><stop stop-opacity="1" stop-color="rgb(18.09845%, 3.486633%, 47.180176%)" offset="0.613281"/><stop stop-opacity="1" stop-color="rgb(17.979431%, 3.451538%, 46.894836%)" offset="0.617188"/><stop stop-opacity="1" stop-color="rgb(17.858887%, 3.416443%, 46.607971%)" offset="0.621094"/><stop stop-opacity="1" stop-color="rgb(17.739868%, 3.381348%, 46.321106%)" offset="0.625"/><stop stop-opacity="1" stop-color="rgb(17.62085%, 3.346252%, 46.034241%)" offset="0.628906"/><stop stop-opacity="1" stop-color="rgb(17.501831%, 3.311157%, 45.748901%)" offset="0.632812"/><stop stop-opacity="1" stop-color="rgb(17.381287%, 3.276062%, 45.462036%)" offset="0.636719"/><stop stop-opacity="1" stop-color="rgb(17.262268%, 3.240967%, 45.175171%)" offset="0.640625"/><stop stop-opacity="1" stop-color="rgb(17.14325%, 3.205872%, 44.888306%)" offset="0.644531"/><stop stop-opacity="1" stop-color="rgb(17.024231%, 3.170776%, 44.602966%)" offset="0.648438"/><stop stop-opacity="1" stop-color="rgb(16.903687%, 3.135681%, 44.316101%)" offset="0.652344"/><stop stop-opacity="1" stop-color="rgb(16.784668%, 3.100586%, 44.029236%)" offset="0.65625"/><stop stop-opacity="1" stop-color="rgb(16.664124%, 3.063965%, 43.742371%)" offset="0.660156"/><stop stop-opacity="1" stop-color="rgb(16.545105%, 3.02887%, 43.457031%)" offset="0.664062"/><stop stop-opacity="1" stop-color="rgb(16.426086%, 2.993774%, 43.170166%)" offset="0.667969"/><stop stop-opacity="1" stop-color="rgb(16.307068%, 2.958679%, 42.883301%)" offset="0.671875"/><stop stop-opacity="1" stop-color="rgb(16.186523%, 2.923584%, 42.596436%)" offset="0.675781"/><stop stop-opacity="1" stop-color="rgb(16.067505%, 2.888489%, 42.311096%)" offset="0.679688"/><stop stop-opacity="1" stop-color="rgb(15.94696%, 2.853394%, 42.024231%)" offset="0.683594"/><stop stop-opacity="1" stop-color="rgb(15.827942%, 2.818298%, 41.737366%)" offset="0.6875"/><stop stop-opacity="1" stop-color="rgb(15.708923%, 2.783203%, 41.4505%)" offset="0.691406"/><stop stop-opacity="1" stop-color="rgb(15.589905%, 2.748108%, 41.165161%)" offset="0.695312"/><stop stop-opacity="1" stop-color="rgb(15.46936%, 2.711487%, 40.878296%)" offset="0.699219"/><stop stop-opacity="1" stop-color="rgb(15.350342%, 2.676392%, 40.591431%)" offset="0.703125"/><stop stop-opacity="1" stop-color="rgb(15.231323%, 2.641296%, 40.304565%)" offset="0.707031"/><stop stop-opacity="1" stop-color="rgb(15.112305%, 2.606201%, 40.019226%)" offset="0.710938"/><stop stop-opacity="1" stop-color="rgb(14.99176%, 2.571106%, 39.732361%)" offset="0.714844"/><stop stop-opacity="1" stop-color="rgb(14.872742%, 2.536011%, 39.445496%)" offset="0.71875"/><stop stop-opacity="1" stop-color="rgb(14.752197%, 2.500916%, 39.15863%)" offset="0.722656"/><stop stop-opacity="1" stop-color="rgb(14.633179%, 2.46582%, 38.873291%)" offset="0.726562"/><stop stop-opacity="1" stop-color="rgb(14.51416%, 2.430725%, 38.586426%)" offset="0.730469"/><stop stop-opacity="1" stop-color="rgb(14.395142%, 2.39563%, 38.299561%)" offset="0.734375"/><stop stop-opacity="1" stop-color="rgb(14.274597%, 2.360535%, 38.012695%)" offset="0.738281"/><stop stop-opacity="1" stop-color="rgb(14.155579%, 2.325439%, 37.727356%)" offset="0.742188"/><stop stop-opacity="1" stop-color="rgb(14.035034%, 2.288818%, 37.440491%)" offset="0.746094"/><stop stop-opacity="1" stop-color="rgb(13.916016%, 2.253723%, 37.153625%)" offset="0.75"/><stop stop-opacity="1" stop-color="rgb(13.796997%, 2.218628%, 36.86676%)" offset="0.753906"/><stop stop-opacity="1" stop-color="rgb(13.677979%, 2.183533%, 36.581421%)" offset="0.757812"/><stop stop-opacity="1" stop-color="rgb(13.557434%, 2.148438%, 36.294556%)" offset="0.761719"/><stop stop-opacity="1" stop-color="rgb(13.438416%, 2.113342%, 36.00769%)" offset="0.765625"/><stop stop-opacity="1" stop-color="rgb(13.319397%, 2.078247%, 35.720825%)" offset="0.769531"/><stop stop-opacity="1" stop-color="rgb(13.200378%, 2.043152%, 35.435486%)" offset="0.773438"/><stop stop-opacity="1" stop-color="rgb(13.079834%, 2.008057%, 35.148621%)" offset="0.777344"/><stop stop-opacity="1" stop-color="rgb(12.960815%, 1.972961%, 34.861755%)" offset="0.78125"/><stop stop-opacity="1" stop-color="rgb(12.840271%, 1.93634%, 34.57489%)" offset="0.785156"/><stop stop-opacity="1" stop-color="rgb(12.721252%, 1.901245%, 34.289551%)" offset="0.789062"/><stop stop-opacity="1" stop-color="rgb(12.602234%, 1.86615%, 34.002686%)" offset="0.792969"/><stop stop-opacity="1" stop-color="rgb(12.483215%, 1.831055%, 33.71582%)" offset="0.796875"/><stop stop-opacity="1" stop-color="rgb(12.362671%, 1.795959%, 33.428955%)" offset="0.800781"/><stop stop-opacity="1" stop-color="rgb(12.243652%, 1.760864%, 33.143616%)" offset="0.804688"/><stop stop-opacity="1" stop-color="rgb(12.124634%, 1.725769%, 32.85675%)" offset="0.808594"/><stop stop-opacity="1" stop-color="rgb(12.005615%, 1.690674%, 32.569885%)" offset="0.8125"/><stop stop-opacity="1" stop-color="rgb(11.885071%, 1.655579%, 32.28302%)" offset="0.816406"/><stop stop-opacity="1" stop-color="rgb(11.766052%, 1.620483%, 31.997681%)" offset="0.820312"/><stop stop-opacity="1" stop-color="rgb(11.645508%, 1.585388%, 31.710815%)" offset="0.824219"/><stop stop-opacity="1" stop-color="rgb(11.526489%, 1.550293%, 31.42395%)" offset="0.828125"/><stop stop-opacity="1" stop-color="rgb(11.407471%, 1.513672%, 31.137085%)" offset="0.832031"/><stop stop-opacity="1" stop-color="rgb(11.288452%, 1.478577%, 30.851746%)" offset="0.835938"/><stop stop-opacity="1" stop-color="rgb(11.167908%, 1.443481%, 30.56488%)" offset="0.839844"/><stop stop-opacity="1" stop-color="rgb(11.048889%, 1.408386%, 30.278015%)" offset="0.84375"/><stop stop-opacity="1" stop-color="rgb(10.928345%, 1.373291%, 29.99115%)" offset="0.847656"/><stop stop-opacity="1" stop-color="rgb(10.809326%, 1.338196%, 29.705811%)" offset="0.851562"/><stop stop-opacity="1" stop-color="rgb(10.690308%, 1.303101%, 29.418945%)" offset="0.855469"/><stop stop-opacity="1" stop-color="rgb(10.571289%, 1.268005%, 29.13208%)" offset="0.859375"/><stop stop-opacity="1" stop-color="rgb(10.450745%, 1.23291%, 28.845215%)" offset="0.863281"/><stop stop-opacity="1" stop-color="rgb(10.331726%, 1.197815%, 28.559875%)" offset="0.867188"/><stop stop-opacity="1" stop-color="rgb(10.212708%, 1.161194%, 28.27301%)" offset="0.871094"/><stop stop-opacity="1" stop-color="rgb(10.093689%, 1.126099%, 27.986145%)" offset="0.875"/><stop stop-opacity="1" stop-color="rgb(9.973145%, 1.091003%, 27.69928%)" offset="0.878906"/><stop stop-opacity="1" stop-color="rgb(9.854126%, 1.055908%, 27.41394%)" offset="0.882812"/><stop stop-opacity="1" stop-color="rgb(9.733582%, 1.020813%, 27.127075%)" offset="0.886719"/><stop stop-opacity="1" stop-color="rgb(9.614563%, 0.985718%, 26.84021%)" offset="0.890625"/><stop stop-opacity="1" stop-color="rgb(9.495544%, 0.950623%, 26.553345%)" offset="0.894531"/><stop stop-opacity="1" stop-color="rgb(9.376526%, 0.915527%, 26.268005%)" offset="0.898438"/><stop stop-opacity="1" stop-color="rgb(9.255981%, 0.880432%, 25.98114%)" offset="0.902344"/><stop stop-opacity="1" stop-color="rgb(9.136963%, 0.845337%, 25.694275%)" offset="0.90625"/><stop stop-opacity="1" stop-color="rgb(9.016418%, 0.810242%, 25.40741%)" offset="0.910156"/><stop stop-opacity="1" stop-color="rgb(8.8974%, 0.775146%, 25.12207%)" offset="0.914062"/><stop stop-opacity="1" stop-color="rgb(8.778381%, 0.738525%, 24.835205%)" offset="0.917969"/><stop stop-opacity="1" stop-color="rgb(8.659363%, 0.70343%, 24.54834%)" offset="0.921875"/><stop stop-opacity="1" stop-color="rgb(8.538818%, 0.668335%, 24.261475%)" offset="0.925781"/><stop stop-opacity="1" stop-color="rgb(8.4198%, 0.63324%, 23.976135%)" offset="0.929688"/><stop stop-opacity="1" stop-color="rgb(8.300781%, 0.598145%, 23.68927%)" offset="0.933594"/><stop stop-opacity="1" stop-color="rgb(8.181763%, 0.563049%, 23.402405%)" offset="0.9375"/><stop stop-opacity="1" stop-color="rgb(8.061218%, 0.527954%, 23.11554%)" offset="0.941406"/><stop stop-opacity="1" stop-color="rgb(7.9422%, 0.492859%, 22.8302%)" offset="0.945312"/><stop stop-opacity="1" stop-color="rgb(7.821655%, 0.457764%, 22.543335%)" offset="0.949219"/><stop stop-opacity="1" stop-color="rgb(7.702637%, 0.422668%, 22.25647%)" offset="0.953125"/><stop stop-opacity="1" stop-color="rgb(7.583618%, 0.386047%, 21.969604%)" offset="0.957031"/><stop stop-opacity="1" stop-color="rgb(7.4646%, 0.350952%, 21.684265%)" offset="0.960938"/><stop stop-opacity="1" stop-color="rgb(7.344055%, 0.315857%, 21.3974%)" offset="0.964844"/><stop stop-opacity="1" stop-color="rgb(7.225037%, 0.280762%, 21.110535%)" offset="0.96875"/><stop stop-opacity="1" stop-color="rgb(7.104492%, 0.245667%, 20.823669%)" offset="0.972656"/><stop stop-opacity="1" stop-color="rgb(6.985474%, 0.210571%, 20.53833%)" offset="0.976562"/><stop stop-opacity="1" stop-color="rgb(6.866455%, 0.175476%, 20.251465%)" offset="0.980469"/><stop stop-opacity="1" stop-color="rgb(6.747437%, 0.140381%, 19.9646%)" offset="0.984375"/><stop stop-opacity="1" stop-color="rgb(6.626892%, 0.105286%, 19.677734%)" offset="0.988281"/><stop stop-opacity="1" stop-color="rgb(6.507874%, 0.0701904%, 19.392395%)" offset="0.992188"/><stop stop-opacity="1" stop-color="rgb(6.388855%, 0.0350952%, 19.10553%)" offset="0.996094"/><stop stop-opacity="1" stop-color="rgb(6.269836%, 0%, 18.818665%)" offset="1"/></linearGradient><mask id="bea40dc10d"><g filter="url(#f50fccf04a)"><rect x="-144" width="1728" fill="#000000" y="-80.999999" height="971.999992" fill-opacity="0.79"/></g></mask><clipPath id="eb3c7a5037"><path d="M 0.839844 0.640625 L 1263.480469 0.640625 L 1263.480469 197.679688 L 0.839844 197.679688 Z M 0.839844 0.640625 " clip-rule="nonzero"/></clipPath><clipPath id="b201805579"><rect x="0" width="1264" y="0" height="198"/></clipPath><clipPath id="72aa78f6fd"><rect x="0" width="1264" y="0" height="198"/></clipPath><mask id="82fc0e5bb1"><g filter="url(#f50fccf04a)"><rect x="-144" width="1728" fill="#000000" y="-80.999999" height="971.999992" fill-opacity="0.67"/></g></mask><clipPath id="fdf5620d55"><path d="M 0.839844 0.078125 L 1263.480469 0.078125 L 1263.480469 196.878906 L 0.839844 196.878906 Z M 0.839844 0.078125 " clip-rule="nonzero"/></clipPath><clipPath id="0839de31e9"><rect x="0" width="1264" y="0" height="197"/></clipPath><clipPath id="3ec48a893a"><rect x="0" width="1264" y="0" height="197"/></clipPath><mask id="bde91bcd72"><g filter="url(#f50fccf04a)"><rect x="-144" width="1728" fill="#000000" y="-80.999999" height="971.999992" fill-opacity="0.38"/></g></mask><clipPath id="16c24e0820"><path d="M 0.839844 0.800781 L 1263.480469 0.800781 L 1263.480469 197.839844 L 0.839844 197.839844 Z M 0.839844 0.800781 " clip-rule="nonzero"/></clipPath><clipPath id="52a0ab1c84"><rect x="0" width="1264" y="0" height="198"/></clipPath><clipPath id="3df9bc5524"><rect x="0" width="1264" y="0" height="198"/></clipPath><mask id="3d7bf1da6b"><g filter="url(#f50fccf04a)"><rect x="-144" width="1728" fill="#000000" y="-80.999999" height="971.999992" fill-opacity="0.29"/></g></mask><clipPath id="1a313acb12"><path d="M 0.28125 0.121094 L 1263.160156 0.121094 L 1263.160156 197.160156 L 0.28125 197.160156 Z M 0.28125 0.121094 " clip-rule="nonzero"/></clipPath><clipPath id="81f8bbd581"><rect x="0" width="1264" y="0" height="198"/></clipPath><clipPath id="4f120b5225"><rect x="0" width="1264" y="0" height="198"/></clipPath></defs><rect x="-144" width="1728" fill="#ffffff" y="-80.999999" height="971.999992" fill-opacity="1"/><rect x="-144" fill="url(#d5beeb61ec)" width="1728" y="-80.999999" height="971.999992"/><g mask="url(#bea40dc10d)"><g transform="matrix(1, 0, 0, 1, 87, 122)"><g clip-path="url(#72aa78f6fd)"><g clip-path="url(#eb3c7a5037)"><g transform="matrix(1, 0, 0, 1, 0, 0.000000000000042633)"><g clip-path="url(#b201805579)"><g fill="#ffffff" fill-opacity="1"><g transform="translate(1.121815, 148.396438)"><g><path d="M 76.71875 1.640625 C 61.09375 1.640625 47.757812 0.492188 36.71875 -1.796875 C 25.675781 -4.097656 17.257812 -8.253906 11.46875 -14.265625 C 5.675781 -20.273438 2.78125 -28.90625 2.78125 -40.15625 L 41.3125 -40.15625 C 41.3125 -37.644531 42.289062 -35.488281 44.25 -33.6875 C 46.21875 -31.882812 49.878906 -30.515625 55.234375 -29.578125 C 60.597656 -28.648438 68.304688 -28.1875 78.359375 -28.1875 C 87.421875 -28.1875 94.273438 -28.457031 98.921875 -29 C 103.566406 -29.550781 106.734375 -30.398438 108.421875 -31.546875 C 110.117188 -32.703125 110.96875 -34.265625 110.96875 -36.234375 C 110.96875 -37.867188 110.554688 -39.148438 109.734375 -40.078125 C 108.921875 -41.003906 107.285156 -41.769531 104.828125 -42.375 C 102.367188 -42.976562 98.84375 -43.414062 94.25 -43.6875 C 89.664062 -43.957031 83.601562 -44.257812 76.0625 -44.59375 C 59.007812 -45.238281 45.289062 -46.738281 34.90625 -49.09375 C 24.53125 -51.445312 16.960938 -55.191406 12.203125 -60.328125 C 7.453125 -65.460938 5.078125 -72.398438 5.078125 -81.140625 C 5.078125 -93.816406 11.113281 -102.859375 23.1875 -108.265625 C 35.269531 -113.679688 52.398438 -116.390625 74.578125 -116.390625 C 89.335938 -116.390625 101.929688 -115.078125 112.359375 -112.453125 C 122.796875 -109.828125 130.75 -105.617188 136.21875 -99.828125 C 141.6875 -94.035156 144.421875 -86.273438 144.421875 -76.546875 L 106.0625 -76.546875 C 106.0625 -80.703125 103.273438 -83.40625 97.703125 -84.65625 C 92.128906 -85.914062 83.332031 -86.546875 71.3125 -86.546875 C 63.769531 -86.546875 57.972656 -86.351562 53.921875 -85.96875 C 49.878906 -85.59375 47.117188 -84.882812 45.640625 -83.84375 C 44.171875 -82.800781 43.4375 -81.300781 43.4375 -79.34375 C 43.4375 -77.375 44.253906 -75.921875 45.890625 -74.984375 C 47.535156 -74.054688 50.679688 -73.398438 55.328125 -73.015625 C 59.972656 -72.640625 66.882812 -72.234375 76.0625 -71.796875 C 87.425781 -71.253906 97.613281 -70.515625 106.625 -69.578125 C 115.644531 -68.648438 123.320312 -67.066406 129.65625 -64.828125 C 136 -62.585938 140.863281 -59.28125 144.25 -54.90625 C 147.632812 -50.539062 149.328125 -44.640625 149.328125 -37.203125 C 149.328125 -26.710938 146.429688 -18.679688 140.640625 -13.109375 C 134.847656 -7.535156 126.539062 -3.679688 115.71875 -1.546875 C 104.90625 0.578125 91.90625 1.640625 76.71875 1.640625 Z M 76.71875 1.640625 "/></g></g></g><g fill="#ffffff" fill-opacity="1"><g transform="translate(150.114394, 148.396438)"><g><path d="M 2.78125 0 L 54.09375 -114.75 L 109.984375 -114.75 L 161.140625 0 L 118.84375 0 L 109.5 -21.796875 L 54.59375 -21.796875 L 45.078125 0 Z M 65.40625 -49.015625 L 98.515625 -49.015625 L 81.953125 -87.375 Z M 65.40625 -49.015625 "/></g></g></g><g fill="#ffffff" fill-opacity="1"><g transform="translate(310.908373, 148.396438)"><g><path d="M 4.421875 0 L 4.421875 -114.75 L 55.234375 -114.75 L 113.921875 -41.96875 L 113.921875 -114.75 L 152.28125 -114.75 L 152.28125 0 L 101.625 0 L 42.953125 -72.78125 L 42.953125 0 Z M 4.421875 0 "/></g></g></g><g fill="#ffffff" fill-opacity="1"><g transform="translate(464.490388, 148.396438)"><g><path d="M 73.265625 1.640625 C 49.660156 1.640625 32.285156 -3.21875 21.140625 -12.9375 C 9.992188 -22.664062 4.421875 -37.53125 4.421875 -57.53125 L 42.953125 -57.53125 C 42.953125 -54.144531 43.332031 -50.867188 44.09375 -47.703125 C 44.863281 -44.535156 46.3125 -41.664062 48.4375 -39.09375 C 50.570312 -36.53125 53.632812 -34.507812 57.625 -33.03125 C 61.613281 -31.550781 66.828125 -30.8125 73.265625 -30.8125 C 79.828125 -30.8125 85.101562 -31.578125 89.09375 -33.109375 C 93.082031 -34.640625 96.140625 -36.6875 98.265625 -39.25 C 100.398438 -41.820312 101.847656 -44.691406 102.609375 -47.859375 C 103.378906 -51.035156 103.765625 -54.257812 103.765625 -57.53125 L 103.765625 -82.28125 L 60.984375 -82.28125 L 60.984375 -114.75 L 142.125 -114.75 L 142.125 -57.53125 C 142.125 -37.644531 136.519531 -22.8125 125.3125 -13.03125 C 114.113281 -3.25 96.765625 1.640625 73.265625 1.640625 Z M 73.265625 1.640625 "/></g></g></g><g fill="#ffffff" fill-opacity="1"><g transform="translate(607.910076, 148.396438)"><g><path d="M 4.421875 0 L 4.421875 -114.75 L 125.734375 -114.75 L 125.734375 -84.90625 L 42.953125 -84.90625 L 42.953125 -70.328125 L 125.734375 -70.328125 L 125.734375 -44.421875 L 42.953125 -44.421875 L 42.953125 -29.828125 L 125.734375 -29.828125 L 125.734375 0 Z M 4.421875 0 "/></g></g></g><g fill="#ffffff" fill-opacity="1"><g transform="translate(733.299855, 148.396438)"><g><path d="M 4.421875 0 L 4.421875 -114.75 L 125.734375 -114.75 L 125.734375 -84.90625 L 42.953125 -84.90625 L 42.953125 -70.328125 L 125.734375 -70.328125 L 125.734375 -44.421875 L 42.953125 -44.421875 L 42.953125 -29.828125 L 125.734375 -29.828125 L 125.734375 0 Z M 4.421875 0 "/></g></g></g><g fill="#ffffff" fill-opacity="1"><g transform="translate(858.689634, 148.396438)"><g><path d="M 42.953125 0 L 2.78125 -114.75 L 44.09375 -114.75 L 71.140625 -31.140625 L 99.5 -114.75 L 145.71875 -114.75 L 174.25 -31.140625 L 201.125 -114.75 L 242.4375 -114.75 L 202.4375 0 L 146.21875 0 L 122.609375 -71.46875 L 99.015625 0 Z M 42.953125 0 "/></g></g></g><g fill="#ffffff" fill-opacity="1"><g transform="translate(1100.782156, 148.396438)"><g><path d="M 2.78125 0 L 54.09375 -114.75 L 109.984375 -114.75 L 161.140625 0 L 118.84375 0 L 109.5 -21.796875 L 54.59375 -21.796875 L 45.078125 0 Z M 65.40625 -49.015625 L 98.515625 -49.015625 L 81.953125 -87.375 Z M 65.40625 -49.015625 "/></g></g></g></g></g></g></g></g></g><g mask="url(#82fc0e5bb1)"><g transform="matrix(1, 0, 0, 1, 87, 256)"><g clip-path="url(#3ec48a893a)"><g clip-path="url(#fdf5620d55)"><g transform="matrix(1, 0, 0, 1, 0, 0.000000000000056843)"><g clip-path="url(#0839de31e9)"><g fill="#ffffff" fill-opacity="1"><g transform="translate(1.121815, 147.633008)"><g><path d="M 76.71875 1.640625 C 61.09375 1.640625 47.757812 0.492188 36.71875 -1.796875 C 25.675781 -4.097656 17.257812 -8.253906 11.46875 -14.265625 C 5.675781 -20.273438 2.78125 -28.90625 2.78125 -40.15625 L 41.3125 -40.15625 C 41.3125 -37.644531 42.289062 -35.488281 44.25 -33.6875 C 46.21875 -31.882812 49.878906 -30.515625 55.234375 -29.578125 C 60.597656 -28.648438 68.304688 -28.1875 78.359375 -28.1875 C 87.421875 -28.1875 94.273438 -28.457031 98.921875 -29 C 103.566406 -29.550781 106.734375 -30.398438 108.421875 -31.546875 C 110.117188 -32.703125 110.96875 -34.265625 110.96875 -36.234375 C 110.96875 -37.867188 110.554688 -39.148438 109.734375 -40.078125 C 108.921875 -41.003906 107.285156 -41.769531 104.828125 -42.375 C 102.367188 -42.976562 98.84375 -43.414062 94.25 -43.6875 C 89.664062 -43.957031 83.601562 -44.257812 76.0625 -44.59375 C 59.007812 -45.238281 45.289062 -46.738281 34.90625 -49.09375 C 24.53125 -51.445312 16.960938 -55.191406 12.203125 -60.328125 C 7.453125 -65.460938 5.078125 -72.398438 5.078125 -81.140625 C 5.078125 -93.816406 11.113281 -102.859375 23.1875 -108.265625 C 35.269531 -113.679688 52.398438 -116.390625 74.578125 -116.390625 C 89.335938 -116.390625 101.929688 -115.078125 112.359375 -112.453125 C 122.796875 -109.828125 130.75 -105.617188 136.21875 -99.828125 C 141.6875 -94.035156 144.421875 -86.273438 144.421875 -76.546875 L 106.0625 -76.546875 C 106.0625 -80.703125 103.273438 -83.40625 97.703125 -84.65625 C 92.128906 -85.914062 83.332031 -86.546875 71.3125 -86.546875 C 63.769531 -86.546875 57.972656 -86.351562 53.921875 -85.96875 C 49.878906 -85.59375 47.117188 -84.882812 45.640625 -83.84375 C 44.171875 -82.800781 43.4375 -81.300781 43.4375 -79.34375 C 43.4375 -77.375 44.253906 -75.921875 45.890625 -74.984375 C 47.535156 -74.054688 50.679688 -73.398438 55.328125 -73.015625 C 59.972656 -72.640625 66.882812 -72.234375 76.0625 -71.796875 C 87.425781 -71.253906 97.613281 -70.515625 106.625 -69.578125 C 115.644531 -68.648438 123.320312 -67.066406 129.65625 -64.828125 C 136 -62.585938 140.863281 -59.28125 144.25 -54.90625 C 147.632812 -50.539062 149.328125 -44.640625 149.328125 -37.203125 C 149.328125 -26.710938 146.429688 -18.679688 140.640625 -13.109375 C 134.847656 -7.535156 126.539062 -3.679688 115.71875 -1.546875 C 104.90625 0.578125 91.90625 1.640625 76.71875 1.640625 Z M 76.71875 1.640625 "/></g></g></g><g fill="#ffffff" fill-opacity="1"><g transform="translate(150.114394, 147.633008)"><g><path d="M 2.78125 0 L 54.09375 -114.75 L 109.984375 -114.75 L 161.140625 0 L 118.84375 0 L 109.5 -21.796875 L 54.59375 -21.796875 L 45.078125 0 Z M 65.40625 -49.015625 L 98.515625 -49.015625 L 81.953125 -87.375 Z M 65.40625 -49.015625 "/></g></g></g><g fill="#ffffff" fill-opacity="1"><g transform="translate(310.908373, 147.633008)"><g><path d="M 4.421875 0 L 4.421875 -114.75 L 55.234375 -114.75 L 113.921875 -41.96875 L 113.921875 -114.75 L 152.28125 -114.75 L 152.28125 0 L 101.625 0 L 42.953125 -72.78125 L 42.953125 0 Z M 4.421875 0 "/></g></g></g><g fill="#ffffff" fill-opacity="1"><g transform="translate(464.490388, 147.633008)"><g><path d="M 73.265625 1.640625 C 49.660156 1.640625 32.285156 -3.21875 21.140625 -12.9375 C 9.992188 -22.664062 4.421875 -37.53125 4.421875 -57.53125 L 42.953125 -57.53125 C 42.953125 -54.144531 43.332031 -50.867188 44.09375 -47.703125 C 44.863281 -44.535156 46.3125 -41.664062 48.4375 -39.09375 C 50.570312 -36.53125 53.632812 -34.507812 57.625 -33.03125 C 61.613281 -31.550781 66.828125 -30.8125 73.265625 -30.8125 C 79.828125 -30.8125 85.101562 -31.578125 89.09375 -33.109375 C 93.082031 -34.640625 96.140625 -36.6875 98.265625 -39.25 C 100.398438 -41.820312 101.847656 -44.691406 102.609375 -47.859375 C 103.378906 -51.035156 103.765625 -54.257812 103.765625 -57.53125 L 103.765625 -82.28125 L 60.984375 -82.28125 L 60.984375 -114.75 L 142.125 -114.75 L 142.125 -57.53125 C 142.125 -37.644531 136.519531 -22.8125 125.3125 -13.03125 C 114.113281 -3.25 96.765625 1.640625 73.265625 1.640625 Z M 73.265625 1.640625 "/></g></g></g><g fill="#ffffff" fill-opacity="1"><g transform="translate(607.910076, 147.633008)"><g><path d="M 4.421875 0 L 4.421875 -114.75 L 125.734375 -114.75 L 125.734375 -84.90625 L 42.953125 -84.90625 L 42.953125 -70.328125 L 125.734375 -70.328125 L 125.734375 -44.421875 L 42.953125 -44.421875 L 42.953125 -29.828125 L 125.734375 -29.828125 L 125.734375 0 Z M 4.421875 0 "/></g></g></g><g fill="#ffffff" fill-opacity="1"><g transform="translate(733.299855, 147.633008)"><g><path d="M 4.421875 0 L 4.421875 -114.75 L 125.734375 -114.75 L 125.734375 -84.90625 L 42.953125 -84.90625 L 42.953125 -70.328125 L 125.734375 -70.328125 L 125.734375 -44.421875 L 42.953125 -44.421875 L 42.953125 -29.828125 L 125.734375 -29.828125 L 125.734375 0 Z M 4.421875 0 "/></g></g></g><g fill="#ffffff" fill-opacity="1"><g transform="translate(858.689634, 147.633008)"><g><path d="M 42.953125 0 L 2.78125 -114.75 L 44.09375 -114.75 L 71.140625 -31.140625 L 99.5 -114.75 L 145.71875 -114.75 L 174.25 -31.140625 L 201.125 -114.75 L 242.4375 -114.75 L 202.4375 0 L 146.21875 0 L 122.609375 -71.46875 L 99.015625 0 Z M 42.953125 0 "/></g></g></g><g fill="#ffffff" fill-opacity="1"><g transform="translate(1100.782156, 147.633008)"><g><path d="M 2.78125 0 L 54.09375 -114.75 L 109.984375 -114.75 L 161.140625 0 L 118.84375 0 L 109.5 -21.796875 L 54.59375 -21.796875 L 45.078125 0 Z M 65.40625 -49.015625 L 98.515625 -49.015625 L 81.953125 -87.375 Z M 65.40625 -49.015625 "/></g></g></g></g></g></g></g></g></g><g mask="url(#bde91bcd72)"><g transform="matrix(1, 0, 0, 1, 87, 388)"><g clip-path="url(#3df9bc5524)"><g clip-path="url(#16c24e0820)"><g><g clip-path="url(#52a0ab1c84)"><g fill="#ffffff" fill-opacity="1"><g transform="translate(1.121815, 148.468519)"><g><path d="M 76.71875 1.640625 C 61.09375 1.640625 47.757812 0.492188 36.71875 -1.796875 C 25.675781 -4.097656 17.257812 -8.253906 11.46875 -14.265625 C 5.675781 -20.273438 2.78125 -28.90625 2.78125 -40.15625 L 41.3125 -40.15625 C 41.3125 -37.644531 42.289062 -35.488281 44.25 -33.6875 C 46.21875 -31.882812 49.878906 -30.515625 55.234375 -29.578125 C 60.597656 -28.648438 68.304688 -28.1875 78.359375 -28.1875 C 87.421875 -28.1875 94.273438 -28.457031 98.921875 -29 C 103.566406 -29.550781 106.734375 -30.398438 108.421875 -31.546875 C 110.117188 -32.703125 110.96875 -34.265625 110.96875 -36.234375 C 110.96875 -37.867188 110.554688 -39.148438 109.734375 -40.078125 C 108.921875 -41.003906 107.285156 -41.769531 104.828125 -42.375 C 102.367188 -42.976562 98.84375 -43.414062 94.25 -43.6875 C 89.664062 -43.957031 83.601562 -44.257812 76.0625 -44.59375 C 59.007812 -45.238281 45.289062 -46.738281 34.90625 -49.09375 C 24.53125 -51.445312 16.960938 -55.191406 12.203125 -60.328125 C 7.453125 -65.460938 5.078125 -72.398438 5.078125 -81.140625 C 5.078125 -93.816406 11.113281 -102.859375 23.1875 -108.265625 C 35.269531 -113.679688 52.398438 -116.390625 74.578125 -116.390625 C 89.335938 -116.390625 101.929688 -115.078125 112.359375 -112.453125 C 122.796875 -109.828125 130.75 -105.617188 136.21875 -99.828125 C 141.6875 -94.035156 144.421875 -86.273438 144.421875 -76.546875 L 106.0625 -76.546875 C 106.0625 -80.703125 103.273438 -83.40625 97.703125 -84.65625 C 92.128906 -85.914062 83.332031 -86.546875 71.3125 -86.546875 C 63.769531 -86.546875 57.972656 -86.351562 53.921875 -85.96875 C 49.878906 -85.59375 47.117188 -84.882812 45.640625 -83.84375 C 44.171875 -82.800781 43.4375 -81.300781 43.4375 -79.34375 C 43.4375 -77.375 44.253906 -75.921875 45.890625 -74.984375 C 47.535156 -74.054688 50.679688 -73.398438 55.328125 -73.015625 C 59.972656 -72.640625 66.882812 -72.234375 76.0625 -71.796875 C 87.425781 -71.253906 97.613281 -70.515625 106.625 -69.578125 C 115.644531 -68.648438 123.320312 -67.066406 129.65625 -64.828125 C 136 -62.585938 140.863281 -59.28125 144.25 -54.90625 C 147.632812 -50.539062 149.328125 -44.640625 149.328125 -37.203125 C 149.328125 -26.710938 146.429688 -18.679688 140.640625 -13.109375 C 134.847656 -7.535156 126.539062 -3.679688 115.71875 -1.546875 C 104.90625 0.578125 91.90625 1.640625 76.71875 1.640625 Z M 76.71875 1.640625 "/></g></g></g><g fill="#ffffff" fill-opacity="1"><g transform="translate(150.114394, 148.468519)"><g><path d="M 2.78125 0 L 54.09375 -114.75 L 109.984375 -114.75 L 161.140625 0 L 118.84375 0 L 109.5 -21.796875 L 54.59375 -21.796875 L 45.078125 0 Z M 65.40625 -49.015625 L 98.515625 -49.015625 L 81.953125 -87.375 Z M 65.40625 -49.015625 "/></g></g></g><g fill="#ffffff" fill-opacity="1"><g transform="translate(310.908373, 148.468519)"><g><path d="M 4.421875 0 L 4.421875 -114.75 L 55.234375 -114.75 L 113.921875 -41.96875 L 113.921875 -114.75 L 152.28125 -114.75 L 152.28125 0 L 101.625 0 L 42.953125 -72.78125 L 42.953125 0 Z M 4.421875 0 "/></g></g></g><g fill="#ffffff" fill-opacity="1"><g transform="translate(464.490388, 148.468519)"><g><path d="M 73.265625 1.640625 C 49.660156 1.640625 32.285156 -3.21875 21.140625 -12.9375 C 9.992188 -22.664062 4.421875 -37.53125 4.421875 -57.53125 L 42.953125 -57.53125 C 42.953125 -54.144531 43.332031 -50.867188 44.09375 -47.703125 C 44.863281 -44.535156 46.3125 -41.664062 48.4375 -39.09375 C 50.570312 -36.53125 53.632812 -34.507812 57.625 -33.03125 C 61.613281 -31.550781 66.828125 -30.8125 73.265625 -30.8125 C 79.828125 -30.8125 85.101562 -31.578125 89.09375 -33.109375 C 93.082031 -34.640625 96.140625 -36.6875 98.265625 -39.25 C 100.398438 -41.820312 101.847656 -44.691406 102.609375 -47.859375 C 103.378906 -51.035156 103.765625 -54.257812 103.765625 -57.53125 L 103.765625 -82.28125 L 60.984375 -82.28125 L 60.984375 -114.75 L 142.125 -114.75 L 142.125 -57.53125 C 142.125 -37.644531 136.519531 -22.8125 125.3125 -13.03125 C 114.113281 -3.25 96.765625 1.640625 73.265625 1.640625 Z M 73.265625 1.640625 "/></g></g></g><g fill="#ffffff" fill-opacity="1"><g transform="translate(607.910076, 148.468519)"><g><path d="M 4.421875 0 L 4.421875 -114.75 L 125.734375 -114.75 L 125.734375 -84.90625 L 42.953125 -84.90625 L 42.953125 -70.328125 L 125.734375 -70.328125 L 125.734375 -44.421875 L 42.953125 -44.421875 L 42.953125 -29.828125 L 125.734375 -29.828125 L 125.734375 0 Z M 4.421875 0 "/></g></g></g><g fill="#ffffff" fill-opacity="1"><g transform="translate(733.299855, 148.468519)"><g><path d="M 4.421875 0 L 4.421875 -114.75 L 125.734375 -114.75 L 125.734375 -84.90625 L 42.953125 -84.90625 L 42.953125 -70.328125 L 125.734375 -70.328125 L 125.734375 -44.421875 L 42.953125 -44.421875 L 42.953125 -29.828125 L 125.734375 -29.828125 L 125.734375 0 Z M 4.421875 0 "/></g></g></g><g fill="#ffffff" fill-opacity="1"><g transform="translate(858.689634, 148.468519)"><g><path d="M 42.953125 0 L 2.78125 -114.75 L 44.09375 -114.75 L 71.140625 -31.140625 L 99.5 -114.75 L 145.71875 -114.75 L 174.25 -31.140625 L 201.125 -114.75 L 242.4375 -114.75 L 202.4375 0 L 146.21875 0 L 122.609375 -71.46875 L 99.015625 0 Z M 42.953125 0 "/></g></g></g><g fill="#ffffff" fill-opacity="1"><g transform="translate(1100.782156, 148.468519)"><g><path d="M 2.78125 0 L 54.09375 -114.75 L 109.984375 -114.75 L 161.140625 0 L 118.84375 0 L 109.5 -21.796875 L 54.59375 -21.796875 L 45.078125 0 Z M 65.40625 -49.015625 L 98.515625 -49.015625 L 81.953125 -87.375 Z M 65.40625 -49.015625 "/></g></g></g></g></g></g></g></g></g><g mask="url(#3d7bf1da6b)"><g transform="matrix(1, 0, 0, 1, 77, 519)"><g clip-path="url(#4f120b5225)"><g clip-path="url(#1a313acb12)"><g><g clip-path="url(#81f8bbd581)"><g fill="#ffffff" fill-opacity="1"><g transform="translate(0.579542, 147.77527)"><g><path d="M 76.71875 1.640625 C 61.09375 1.640625 47.757812 0.492188 36.71875 -1.796875 C 25.675781 -4.097656 17.257812 -8.253906 11.46875 -14.265625 C 5.675781 -20.273438 2.78125 -28.90625 2.78125 -40.15625 L 41.3125 -40.15625 C 41.3125 -37.644531 42.289062 -35.488281 44.25 -33.6875 C 46.21875 -31.882812 49.878906 -30.515625 55.234375 -29.578125 C 60.597656 -28.648438 68.304688 -28.1875 78.359375 -28.1875 C 87.421875 -28.1875 94.273438 -28.457031 98.921875 -29 C 103.566406 -29.550781 106.734375 -30.398438 108.421875 -31.546875 C 110.117188 -32.703125 110.96875 -34.265625 110.96875 -36.234375 C 110.96875 -37.867188 110.554688 -39.148438 109.734375 -40.078125 C 108.921875 -41.003906 107.285156 -41.769531 104.828125 -42.375 C 102.367188 -42.976562 98.84375 -43.414062 94.25 -43.6875 C 89.664062 -43.957031 83.601562 -44.257812 76.0625 -44.59375 C 59.007812 -45.238281 45.289062 -46.738281 34.90625 -49.09375 C 24.53125 -51.445312 16.960938 -55.191406 12.203125 -60.328125 C 7.453125 -65.460938 5.078125 -72.398438 5.078125 -81.140625 C 5.078125 -93.816406 11.113281 -102.859375 23.1875 -108.265625 C 35.269531 -113.679688 52.398438 -116.390625 74.578125 -116.390625 C 89.335938 -116.390625 101.929688 -115.078125 112.359375 -112.453125 C 122.796875 -109.828125 130.75 -105.617188 136.21875 -99.828125 C 141.6875 -94.035156 144.421875 -86.273438 144.421875 -76.546875 L 106.0625 -76.546875 C 106.0625 -80.703125 103.273438 -83.40625 97.703125 -84.65625 C 92.128906 -85.914062 83.332031 -86.546875 71.3125 -86.546875 C 63.769531 -86.546875 57.972656 -86.351562 53.921875 -85.96875 C 49.878906 -85.59375 47.117188 -84.882812 45.640625 -83.84375 C 44.171875 -82.800781 43.4375 -81.300781 43.4375 -79.34375 C 43.4375 -77.375 44.253906 -75.921875 45.890625 -74.984375 C 47.535156 -74.054688 50.679688 -73.398438 55.328125 -73.015625 C 59.972656 -72.640625 66.882812 -72.234375 76.0625 -71.796875 C 87.425781 -71.253906 97.613281 -70.515625 106.625 -69.578125 C 115.644531 -68.648438 123.320312 -67.066406 129.65625 -64.828125 C 136 -62.585938 140.863281 -59.28125 144.25 -54.90625 C 147.632812 -50.539062 149.328125 -44.640625 149.328125 -37.203125 C 149.328125 -26.710938 146.429688 -18.679688 140.640625 -13.109375 C 134.847656 -7.535156 126.539062 -3.679688 115.71875 -1.546875 C 104.90625 0.578125 91.90625 1.640625 76.71875 1.640625 Z M 76.71875 1.640625 "/></g></g></g><g fill="#ffffff" fill-opacity="1"><g transform="translate(149.572121, 147.77527)"><g><path d="M 2.78125 0 L 54.09375 -114.75 L 109.984375 -114.75 L 161.140625 0 L 118.84375 0 L 109.5 -21.796875 L 54.59375 -21.796875 L 45.078125 0 Z M 65.40625 -49.015625 L 98.515625 -49.015625 L 81.953125 -87.375 Z M 65.40625 -49.015625 "/></g></g></g><g fill="#ffffff" fill-opacity="1"><g transform="translate(310.3661, 147.77527)"><g><path d="M 4.421875 0 L 4.421875 -114.75 L 55.234375 -114.75 L 113.921875 -41.96875 L 113.921875 -114.75 L 152.28125 -114.75 L 152.28125 0 L 101.625 0 L 42.953125 -72.78125 L 42.953125 0 Z M 4.421875 0 "/></g></g></g><g fill="#ffffff" fill-opacity="1"><g transform="translate(463.948115, 147.77527)"><g><path d="M 73.265625 1.640625 C 49.660156 1.640625 32.285156 -3.21875 21.140625 -12.9375 C 9.992188 -22.664062 4.421875 -37.53125 4.421875 -57.53125 L 42.953125 -57.53125 C 42.953125 -54.144531 43.332031 -50.867188 44.09375 -47.703125 C 44.863281 -44.535156 46.3125 -41.664062 48.4375 -39.09375 C 50.570312 -36.53125 53.632812 -34.507812 57.625 -33.03125 C 61.613281 -31.550781 66.828125 -30.8125 73.265625 -30.8125 C 79.828125 -30.8125 85.101562 -31.578125 89.09375 -33.109375 C 93.082031 -34.640625 96.140625 -36.6875 98.265625 -39.25 C 100.398438 -41.820312 101.847656 -44.691406 102.609375 -47.859375 C 103.378906 -51.035156 103.765625 -54.257812 103.765625 -57.53125 L 103.765625 -82.28125 L 60.984375 -82.28125 L 60.984375 -114.75 L 142.125 -114.75 L 142.125 -57.53125 C 142.125 -37.644531 136.519531 -22.8125 125.3125 -13.03125 C 114.113281 -3.25 96.765625 1.640625 73.265625 1.640625 Z M 73.265625 1.640625 "/></g></g></g><g fill="#ffffff" fill-opacity="1"><g transform="translate(607.367803, 147.77527)"><g><path d="M 4.421875 0 L 4.421875 -114.75 L 125.734375 -114.75 L 125.734375 -84.90625 L 42.953125 -84.90625 L 42.953125 -70.328125 L 125.734375 -70.328125 L 125.734375 -44.421875 L 42.953125 -44.421875 L 42.953125 -29.828125 L 125.734375 -29.828125 L 125.734375 0 Z M 4.421875 0 "/></g></g></g><g fill="#ffffff" fill-opacity="1"><g transform="translate(732.757582, 147.77527)"><g><path d="M 4.421875 0 L 4.421875 -114.75 L 125.734375 -114.75 L 125.734375 -84.90625 L 42.953125 -84.90625 L 42.953125 -70.328125 L 125.734375 -70.328125 L 125.734375 -44.421875 L 42.953125 -44.421875 L 42.953125 -29.828125 L 125.734375 -29.828125 L 125.734375 0 Z M 4.421875 0 "/></g></g></g><g fill="#ffffff" fill-opacity="1"><g transform="translate(858.14736, 147.77527)"><g><path d="M 42.953125 0 L 2.78125 -114.75 L 44.09375 -114.75 L 71.140625 -31.140625 L 99.5 -114.75 L 145.71875 -114.75 L 174.25 -31.140625 L 201.125 -114.75 L 242.4375 -114.75 L 202.4375 0 L 146.21875 0 L 122.609375 -71.46875 L 99.015625 0 Z M 42.953125 0 "/></g></g></g><g fill="#ffffff" fill-opacity="1"><g transform="translate(1100.239883, 147.77527)"><g><path d="M 2.78125 0 L 54.09375 -114.75 L 109.984375 -114.75 L 161.140625 0 L 118.84375 0 L 109.5 -21.796875 L 54.59375 -21.796875 L 45.078125 0 Z M 65.40625 -49.015625 L 98.515625 -49.015625 L 81.953125 -87.375 Z M 65.40625 -49.015625 "/></g></g></g></g></g></g></g></g></g></svg>